<svg xmlns="http://www.w3.org/2000/svg"
    width="1024" height="1024" viewBox="0 0 1024 1024">
    f<polyline points="16,512 17,512 18,512 19,512 20,512 21,512 22,512 23,512 24,512 25,512 26,512 27,511 28,511 29,511 30,511 31,511 32,511 33,511 34,511 35,510 36,510 37,510 38,510 39,510 40,510 41,509 42,509 43,509 44,509 45,508 46,508 47,508 48,508 49,507 50,507 51,507 52,507 53,506 54,506 55,506 56,505 57,505 58,505 59,504 60,504 61,504 62,503 63,503 64,502 65,502 66,502 67,501 68,501 69,500 70,500 71,500 72,499 73,499 74,498 75,498 76,497 77,497 78,496 79,496 80,495 81,495 82,494 83,494 84,493 85,493 86,492 87,492 88,491 89,490 90,490 91,489 92,489 93,488 94,488 95,487 96,486 97,486 98,485 99,484 100,484 101,483 102,483 103,482 104,481 105,481 106,480 107,479 108,479 109,478 110,477 111,477 112,476 113,475 114,474 115,474 116,473 117,472 118,472 119,471 120,470 121,469 122,469 123,468 124,467 125,466 126,466 127,465 128,464 129,463 130,463 131,462 132,461 133,460 134,460 135,459 136,458 137,457 138,456 139,456 140,455 141,454 142,453 143,452 144,452 145,451 146,450 147,449 148,448 149,448 150,447 151,446 152,445 153,444 154,443 155,443 156,442 157,441 158,440 159,439 160,438 161,438 162,437 163,436 164,435 165,434 166,433 167,433 168,432 169,431 170,430 171,429 172,428 173,428 174,427 175,426 176,425 177,424 178,423 179,423 180,422 181,421 182,420 183,419 184,418 185,418 186,417 187,416 188,415 189,414 190,413 191,413 192,412 193,411 194,410 195,409 196,408 197,408 198,407 199,406 200,405 201,404 202,404 203,403 204,402 205,401 206,400 207,400 208,399 209,398 210,397 211,397 212,396 213,395 214,394 215,394 216,393 217,392 218,391 219,391 220,390 221,389 222,388 223,388 224,387 225,386 226,385 227,385 228,384 229,383 230,383 231,382 232,381 233,381 234,380 235,379 236,379 237,378 238,377 239,377 240,376 241,375 242,375 243,374 244,374 245,373 246,372 247,372 248,371 249,371 250,370 251,369 252,369 253,368 254,368 255,367 256,367 257,366 258,366 259,365 260,365 261,364 262,364 263,363 264,363 265,362 266,362 267,361 268,361 269,360 270,360 271,360 272,359 273,359 274,358 275,358 276,358 277,357 278,357 279,356 280,356 281,356 282,355 283,355 284,355 285,355 286,354 287,354 288,354 289,353 290,353 291,353 292,353 293,352 294,352 295,352 296,352 297,352 298,351 299,351 300,351 301,351 302,351 303,350 304,350 305,350 306,350 307,350 308,350 309,350 310,350 311,350 312,350 313,350 314,350 315,349 316,349 317,349 318,349 319,349 320,349 321,350 322,350 323,350 324,350 325,350 326,350 327,350 328,350 329,350 330,350 331,350 332,350 333,351 334,351 335,351 336,351 337,351 338,352 339,352 340,352 341,352 342,352 343,353 344,353 345,353 346,353 347,354 348,354 349,354 350,355 351,355 352,355 353,356 354,356 355,356 356,357 357,357 358,358 359,358 360,358 361,359 362,359 363,360 364,360 365,361 366,361 367,362 368,362 369,363 370,363 371,364 372,364 373,365 374,365 375,366 376,366 377,367 378,368 379,368 380,369 381,369 382,370 383,371 384,371 385,372 386,373 387,373 388,374 389,375 390,375 391,376 392,377 393,378 394,378 395,379 396,380 397,381 398,381 399,382 400,383 401,384 402,385 403,385 404,386 405,387 406,388 407,389 408,390 409,391 410,391 411,392 412,393 413,394 414,395 415,396 416,397 417,398 418,399 419,400 420,401 421,402 422,403 423,404 424,405 425,406 426,407 427,408 428,409 429,410 430,411 431,412 432,413 433,414 434,415 435,416 436,417 437,418 438,419 439,420 440,421 441,423 442,424 443,425 444,426 445,427 446,428 447,429 448,430 449,432 450,433 451,434 452,435 453,436 454,437 455,439 456,440 457,441 458,442 459,443 460,445 461,446 462,447 463,448 464,450 465,451 466,452 467,453 468,454 469,456 470,457 471,458 472,459 473,461 474,462 475,463 476,465 477,466 478,467 479,468 480,470 481,471 482,472 483,474 484,475 485,476 486,478 487,479 488,480 489,481 490,483 491,484 492,485 493,487 494,488 495,489 496,491 497,492 498,493 499,495 500,496 501,497 502,499 503,500 504,501 505,503 506,504 507,505 508,507 509,508 510,509 511,511 512,512 513,513 514,515 515,516 516,517 517,519 518,520 519,521 520,523 521,524 522,525 523,527 524,528 525,529 526,531 527,532 528,533 529,535 530,536 531,537 532,539 533,540 534,541 535,543 536,544 537,545 538,546 539,548 540,549 541,550 542,552 543,553 544,554 545,556 546,557 547,558 548,559 549,561 550,562 551,563 552,565 553,566 554,567 555,568 556,570 557,571 558,572 559,573 560,574 561,576 562,577 563,578 564,579 565,581 566,582 567,583 568,584 569,585 570,587 571,588 572,589 573,590 574,591 575,592 576,594 577,595 578,596 579,597 580,598 581,599 582,600 583,601 584,603 585,604 586,605 587,606 588,607 589,608 590,609 591,610 592,611 593,612 594,613 595,614 596,615 597,616 598,617 599,618 600,619 601,620 602,621 603,622 604,623 605,624 606,625 607,626 608,627 609,628 610,629 611,630 612,631 613,632 614,633 615,633 616,634 617,635 618,636 619,637 620,638 621,639 622,639 623,640 624,641 625,642 626,643 627,643 628,644 629,645 630,646 631,646 632,647 633,648 634,649 635,649 636,650 637,651 638,651 639,652 640,653 641,653 642,654 643,655 644,655 645,656 646,656 647,657 648,658 649,658 650,659 651,659 652,660 653,660 654,661 655,661 656,662 657,662 658,663 659,663 660,664 661,664 662,665 663,665 664,666 665,666 666,666 667,667 668,667 669,668 670,668 671,668 672,669 673,669 674,669 675,670 676,670 677,670 678,671 679,671 680,671 681,671 682,672 683,672 684,672 685,672 686,672 687,673 688,673 689,673 690,673 691,673 692,674 693,674 694,674 695,674 696,674 697,674 698,674 699,674 700,674 701,674 702,674 703,674 704,675 705,675 706,675 707,675 708,675 709,675 710,674 711,674 712,674 713,674 714,674 715,674 716,674 717,674 718,674 719,674 720,674 721,674 722,673 723,673 724,673 725,673 726,673 727,672 728,672 729,672 730,672 731,672 732,671 733,671 734,671 735,671 736,670 737,670 738,670 739,669 740,669 741,669 742,669 743,668 744,668 745,668 746,667 747,667 748,666 749,666 750,666 751,665 752,665 753,664 754,664 755,664 756,663 757,663 758,662 759,662 760,661 761,661 762,660 763,660 764,659 765,659 766,658 767,658 768,657 769,657 770,656 771,656 772,655 773,655 774,654 775,653 776,653 777,652 778,652 779,651 780,650 781,650 782,649 783,649 784,648 785,647 786,647 787,646 788,645 789,645 790,644 791,643 792,643 793,642 794,641 795,641 796,640 797,639 798,639 799,638 800,637 801,636 802,636 803,635 804,634 805,633 806,633 807,632 808,631 809,630 810,630 811,629 812,628 813,627 814,627 815,626 816,625 817,624 818,624 819,623 820,622 821,621 822,620 823,620 824,619 825,618 826,617 827,616 828,616 829,615 830,614 831,613 832,612 833,611 834,611 835,610 836,609 837,608 838,607 839,606 840,606 841,605 842,604 843,603 844,602 845,601 846,601 847,600 848,599 849,598 850,597 851,596 852,596 853,595 854,594 855,593 856,592 857,591 858,591 859,590 860,589 861,588 862,587 863,586 864,586 865,585 866,584 867,583 868,582 869,581 870,581 871,580 872,579 873,578 874,577 875,576 876,576 877,575 878,574 879,573 880,572 881,572 882,571 883,570 884,569 885,568 886,568 887,567 888,566 889,565 890,564 891,564 892,563 893,562 894,561 895,561 896,560 897,559 898,558 899,558 900,557 901,556 902,555 903,555 904,554 905,553 906,552 907,552 908,551 909,550 910,550 911,549 912,548 913,547 914,547 915,546 916,545 917,545 918,544 919,543 920,543 921,542 922,541 923,541 924,540 925,540 926,539 927,538 928,538 929,537 930,536 931,536 932,535 933,535 934,534 935,534 936,533 937,532 938,532 939,531 940,531 941,530 942,530 943,529 944,529 945,528 946,528 947,527 948,527 949,526 950,526 951,525 952,525 953,524 954,524 955,524 956,523 957,523 958,522 959,522 960,522 961,521 962,521 963,520 964,520 965,520 966,519 967,519 968,519 969,518 970,518 971,518 972,517 973,517 974,517 975,517 976,516 977,516 978,516 979,516 980,515 981,515 982,515 983,515 984,514 985,514 986,514 987,514 988,514 989,514 990,513 991,513 992,513 993,513 994,513 995,513 996,513 997,513 998,512 999,512 1000,512 1001,512 1002,512 1003,512 1004,512 1005,512 1006,512 1007,512" 
        fill="none" stroke="white" stroke-width="32"
        stroke-linecap="round" stroke-linejoin="round"/>
<polyline points="16,512 17,512 18,512 19,512 20,512 21,512 22,512 23,512 24,512 25,511 26,511 27,511 28,511 29,511 30,511 31,511 32,510 33,510 34,510 35,510 36,509 37,509 38,509 39,509 40,508 41,508 42,508 43,507 44,507 45,507 46,506 47,506 48,506 49,505 50,505 51,504 52,504 53,503 54,503 55,502 56,502 57,501 58,501 59,500 60,500 61,499 62,499 63,498 64,498 65,497 66,496 67,496 68,495 69,494 70,494 71,493 72,492 73,492 74,491 75,490 76,490 77,489 78,488 79,487 80,487 81,486 82,485 83,484 84,484 85,483 86,482 87,481 88,480 89,479 90,479 91,478 92,477 93,476 94,475 95,474 96,473 97,472 98,471 99,470 100,470 101,469 102,468 103,467 104,466 105,465 106,464 107,463 108,462 109,461 110,460 111,459 112,458 113,457 114,455 115,454 116,453 117,452 118,451 119,450 120,449 121,448 122,447 123,446 124,445 125,443 126,442 127,441 128,440 129,439 130,438 131,437 132,435 133,434 134,433 135,432 136,431 137,429 138,428 139,427 140,426 141,425 142,423 143,422 144,421 145,420 146,419 147,417 148,416 149,415 150,414 151,412 152,411 153,410 154,409 155,407 156,406 157,405 158,404 159,402 160,401 161,400 162,399 163,397 164,396 165,395 166,394 167,392 168,391 169,390 170,389 171,387 172,386 173,385 174,383 175,382 176,381 177,380 178,378 179,377 180,376 181,375 182,373 183,372 184,371 185,370 186,368 187,367 188,366 189,365 190,363 191,362 192,361 193,360 194,358 195,357 196,356 197,355 198,353 199,352 200,351 201,350 202,349 203,347 204,346 205,345 206,344 207,343 208,341 209,340 210,339 211,338 212,337 213,336 214,335 215,333 216,332 217,331 218,330 219,329 220,328 221,327 222,326 223,324 224,323 225,322 226,321 227,320 228,319 229,318 230,317 231,316 232,315 233,314 234,313 235,312 236,311 237,310 238,309 239,308 240,307 241,306 242,305 243,304 244,303 245,302 246,301 247,301 248,300 249,299 250,298 251,297 252,296 253,295 254,295 255,294 256,293 257,292 258,291 259,291 260,290 261,289 262,288 263,288 264,287 265,286 266,286 267,285 268,284 269,283 270,283 271,282 272,282 273,281 274,280 275,280 276,279 277,279 278,278 279,278 280,277 281,276 282,276 283,276 284,275 285,275 286,274 287,274 288,273 289,273 290,272 291,272 292,272 293,271 294,271 295,271 296,270 297,270 298,270 299,269 300,269 301,269 302,269 303,269 304,268 305,268 306,268 307,268 308,268 309,268 310,267 311,267 312,267 313,267 314,267 315,267 316,267 317,267 318,267 319,267 320,267 321,267 322,267 323,267 324,267 325,267 326,267 327,268 328,268 329,268 330,268 331,268 332,268 333,269 334,269 335,269 336,269 337,270 338,270 339,270 340,271 341,271 342,271 343,272 344,272 345,273 346,273 347,273 348,274 349,274 350,275 351,275 352,276 353,276 354,277 355,277 356,278 357,279 358,279 359,280 360,280 361,281 362,282 363,282 364,283 365,284 366,285 367,285 368,286 369,287 370,288 371,288 372,289 373,290 374,291 375,292 376,293 377,293 378,294 379,295 380,296 381,297 382,298 383,299 384,300 385,301 386,302 387,303 388,304 389,305 390,306 391,307 392,308 393,309 394,311 395,312 396,313 397,314 398,315 399,316 400,318 401,319 402,320 403,321 404,322 405,324 406,325 407,326 408,328 409,329 410,330 411,332 412,333 413,334 414,336 415,337 416,338 417,340 418,341 419,343 420,344 421,346 422,347 423,349 424,350 425,352 426,353 427,355 428,356 429,358 430,359 431,361 432,362 433,364 434,366 435,367 436,369 437,370 438,372 439,374 440,375 441,377 442,379 443,380 444,382 445,384 446,386 447,387 448,389 449,391 450,393 451,394 452,396 453,398 454,400 455,401 456,403 457,405 458,407 459,409 460,410 461,412 462,414 463,416 464,418 465,420 466,422 467,423 468,425 469,427 470,429 471,431 472,433 473,435 474,437 475,439 476,441 477,442 478,444 479,446 480,448 481,450 482,452 483,454 484,456 485,458 486,460 487,462 488,464 489,466 490,468 491,470 492,472 493,474 494,476 495,478 496,480 497,482 498,484 499,486 500,488 501,490 502,492 503,494 504,496 505,498 506,500 507,502 508,504 509,506 510,508 511,510 512,512 513,514 514,516 515,518 516,520 517,522 518,524 519,526 520,528 521,530 522,532 523,534 524,536 525,538 526,540 527,542 528,544 529,546 530,548 531,550 532,552 533,554 534,556 535,558 536,560 537,562 538,564 539,566 540,568 541,570 542,572 543,574 544,576 545,578 546,580 547,582 548,583 549,585 550,587 551,589 552,591 553,593 554,595 555,597 556,599 557,601 558,602 559,604 560,606 561,608 562,610 563,612 564,614 565,615 566,617 567,619 568,621 569,623 570,624 571,626 572,628 573,630 574,631 575,633 576,635 577,637 578,638 579,640 580,642 581,644 582,645 583,647 584,649 585,650 586,652 587,654 588,655 589,657 590,658 591,660 592,662 593,663 594,665 595,666 596,668 597,669 598,671 599,672 600,674 601,675 602,677 603,678 604,680 605,681 606,683 607,684 608,686 609,687 610,688 611,690 612,691 613,692 614,694 615,695 616,696 617,698 618,699 619,700 620,702 621,703 622,704 623,705 624,706 625,708 626,709 627,710 628,711 629,712 630,713 631,715 632,716 633,717 634,718 635,719 636,720 637,721 638,722 639,723 640,724 641,725 642,726 643,727 644,728 645,729 646,730 647,731 648,731 649,732 650,733 651,734 652,735 653,736 654,736 655,737 656,738 657,739 658,739 659,740 660,741 661,742 662,742 663,743 664,744 665,744 666,745 667,745 668,746 669,747 670,747 671,748 672,748 673,749 674,749 675,750 676,750 677,751 678,751 679,751 680,752 681,752 682,753 683,753 684,753 685,754 686,754 687,754 688,755 689,755 690,755 691,755 692,756 693,756 694,756 695,756 696,756 697,756 698,757 699,757 700,757 701,757 702,757 703,757 704,757 705,757 706,757 707,757 708,757 709,757 710,757 711,757 712,757 713,757 714,757 715,756 716,756 717,756 718,756 719,756 720,756 721,755 722,755 723,755 724,755 725,755 726,754 727,754 728,754 729,753 730,753 731,753 732,752 733,752 734,752 735,751 736,751 737,750 738,750 739,749 740,749 741,748 742,748 743,748 744,747 745,746 746,746 747,745 748,745 749,744 750,744 751,743 752,742 753,742 754,741 755,741 756,740 757,739 758,738 759,738 760,737 761,736 762,736 763,735 764,734 765,733 766,733 767,732 768,731 769,730 770,729 771,729 772,728 773,727 774,726 775,725 776,724 777,723 778,723 779,722 780,721 781,720 782,719 783,718 784,717 785,716 786,715 787,714 788,713 789,712 790,711 791,710 792,709 793,708 794,707 795,706 796,705 797,704 798,703 799,702 800,701 801,700 802,698 803,697 804,696 805,695 806,694 807,693 808,692 809,691 810,689 811,688 812,687 813,686 814,685 815,684 816,683 817,681 818,680 819,679 820,678 821,677 822,675 823,674 824,673 825,672 826,671 827,669 828,668 829,667 830,666 831,664 832,663 833,662 834,661 835,659 836,658 837,657 838,656 839,654 840,653 841,652 842,651 843,649 844,648 845,647 846,646 847,644 848,643 849,642 850,641 851,639 852,638 853,637 854,635 855,634 856,633 857,632 858,630 859,629 860,628 861,627 862,625 863,624 864,623 865,622 866,620 867,619 868,618 869,617 870,615 871,614 872,613 873,612 874,610 875,609 876,608 877,607 878,605 879,604 880,603 881,602 882,601 883,599 884,598 885,597 886,596 887,595 888,593 889,592 890,591 891,590 892,589 893,587 894,586 895,585 896,584 897,583 898,582 899,581 900,579 901,578 902,577 903,576 904,575 905,574 906,573 907,572 908,571 909,570 910,569 911,567 912,566 913,565 914,564 915,563 916,562 917,561 918,560 919,559 920,558 921,557 922,556 923,555 924,554 925,554 926,553 927,552 928,551 929,550 930,549 931,548 932,547 933,546 934,545 935,545 936,544 937,543 938,542 939,541 940,540 941,540 942,539 943,538 944,537 945,537 946,536 947,535 948,534 949,534 950,533 951,532 952,532 953,531 954,530 955,530 956,529 957,528 958,528 959,527 960,526 961,526 962,525 963,525 964,524 965,524 966,523 967,523 968,522 969,522 970,521 971,521 972,520 973,520 974,519 975,519 976,518 977,518 978,518 979,517 980,517 981,517 982,516 983,516 984,516 985,515 986,515 987,515 988,515 989,514 990,514 991,514 992,514 993,513 994,513 995,513 996,513 997,513 998,513 999,513 1000,512 1001,512 1002,512 1003,512 1004,512 1005,512 1006,512 1007,512" 
        fill="none" stroke="white" stroke-width="32"
        stroke-linecap="round" stroke-linejoin="round"/>
<polyline points="16,512 17,512 18,512 19,512 20,512 21,512 22,512 23,512 24,511 25,511 26,511 27,511 28,511 29,511 30,510 31,510 32,510 33,510 34,509 35,509 36,509 37,508 38,508 39,508 40,507 41,507 42,506 43,506 44,505 45,505 46,504 47,504 48,503 49,503 50,502 51,502 52,501 53,500 54,500 55,499 56,499 57,498 58,497 59,496 60,496 61,495 62,494 63,493 64,493 65,492 66,491 67,490 68,489 69,489 70,488 71,487 72,486 73,485 74,484 75,483 76,482 77,481 78,480 79,479 80,478 81,477 82,476 83,475 84,474 85,473 86,472 87,471 88,470 89,469 90,467 91,466 92,465 93,464 94,463 95,461 96,460 97,459 98,458 99,457 100,455 101,454 102,453 103,451 104,450 105,449 106,447 107,446 108,445 109,443 110,442 111,441 112,439 113,438 114,436 115,435 116,434 117,432 118,431 119,429 120,428 121,426 122,425 123,423 124,422 125,420 126,419 127,417 128,416 129,414 130,413 131,411 132,410 133,408 134,406 135,405 136,403 137,402 138,400 139,398 140,397 141,395 142,394 143,392 144,390 145,389 146,387 147,385 148,384 149,382 150,381 151,379 152,377 153,376 154,374 155,372 156,371 157,369 158,367 159,366 160,364 161,362 162,360 163,359 164,357 165,355 166,354 167,352 168,350 169,349 170,347 171,345 172,344 173,342 174,340 175,338 176,337 177,335 178,333 179,332 180,330 181,328 182,327 183,325 184,323 185,322 186,320 187,318 188,317 189,315 190,313 191,312 192,310 193,308 194,307 195,305 196,303 197,302 198,300 199,298 200,297 201,295 202,294 203,292 204,290 205,289 206,287 207,286 208,284 209,282 210,281 211,279 212,278 213,276 214,275 215,273 216,272 217,270 218,269 219,267 220,266 221,264 222,263 223,261 224,260 225,258 226,257 227,256 228,254 229,253 230,251 231,250 232,249 233,247 234,246 235,245 236,243 237,242 238,241 239,239 240,238 241,237 242,236 243,234 244,233 245,232 246,231 247,229 248,228 249,227 250,226 251,225 252,224 253,222 254,221 255,220 256,219 257,218 258,217 259,216 260,215 261,214 262,213 263,212 264,211 265,210 266,209 267,208 268,207 269,207 270,206 271,205 272,204 273,203 274,202 275,202 276,201 277,200 278,199 279,199 280,198 281,197 282,197 283,196 284,195 285,195 286,194 287,193 288,193 289,192 290,192 291,191 292,191 293,190 294,190 295,189 296,189 297,189 298,188 299,188 300,187 301,187 302,187 303,187 304,186 305,186 306,186 307,186 308,185 309,185 310,185 311,185 312,185 313,185 314,185 315,185 316,184 317,184 318,184 319,184 320,185 321,185 322,185 323,185 324,185 325,185 326,185 327,185 328,186 329,186 330,186 331,186 332,187 333,187 334,187 335,187 336,188 337,188 338,189 339,189 340,189 341,190 342,190 343,191 344,191 345,192 346,192 347,193 348,194 349,194 350,195 351,196 352,196 353,197 354,198 355,198 356,199 357,200 358,201 359,202 360,202 361,203 362,204 363,205 364,206 365,207 366,208 367,209 368,210 369,211 370,212 371,213 372,214 373,215 374,216 375,217 376,219 377,220 378,221 379,222 380,223 381,225 382,226 383,227 384,229 385,230 386,231 387,233 388,234 389,235 390,237 391,238 392,240 393,241 394,243 395,244 396,246 397,247 398,249 399,250 400,252 401,254 402,255 403,257 404,259 405,260 406,262 407,264 408,266 409,267 410,269 411,271 412,273 413,275 414,276 415,278 416,280 417,282 418,284 419,286 420,288 421,290 422,292 423,294 424,296 425,298 426,300 427,302 428,304 429,306 430,308 431,310 432,312 433,314 434,316 435,319 436,321 437,323 438,325 439,327 440,329 441,332 442,334 443,336 444,338 445,341 446,343 447,345 448,348 449,350 450,352 451,355 452,357 453,359 454,362 455,364 456,367 457,369 458,371 459,374 460,376 461,379 462,381 463,384 464,386 465,389 466,391 467,394 468,396 469,399 470,401 471,404 472,406 473,409 474,411 475,414 476,416 477,419 478,422 479,424 480,427 481,429 482,432 483,435 484,437 485,440 486,442 487,445 488,448 489,450 490,453 491,456 492,458 493,461 494,464 495,466 496,469 497,472 498,474 499,477 500,480 501,482 502,485 503,488 504,490 505,493 506,496 507,499 508,501 509,504 510,507 511,509 512,512 513,515 514,517 515,520 516,523 517,525 518,528 519,531 520,534 521,536 522,539 523,542 524,544 525,547 526,550 527,552 528,555 529,558 530,560 531,563 532,566 533,568 534,571 535,574 536,576 537,579 538,582 539,584 540,587 541,589 542,592 543,595 544,597 545,600 546,602 547,605 548,608 549,610 550,613 551,615 552,618 553,620 554,623 555,625 556,628 557,630 558,633 559,635 560,638 561,640 562,643 563,645 564,648 565,650 566,653 567,655 568,657 569,660 570,662 571,665 572,667 573,669 574,672 575,674 576,676 577,679 578,681 579,683 580,686 581,688 582,690 583,692 584,695 585,697 586,699 587,701 588,703 589,705 590,708 591,710 592,712 593,714 594,716 595,718 596,720 597,722 598,724 599,726 600,728 601,730 602,732 603,734 604,736 605,738 606,740 607,742 608,744 609,746 610,748 611,749 612,751 613,753 614,755 615,757 616,758 617,760 618,762 619,764 620,765 621,767 622,769 623,770 624,772 625,774 626,775 627,777 628,778 629,780 630,781 631,783 632,784 633,786 634,787 635,789 636,790 637,791 638,793 639,794 640,795 641,797 642,798 643,799 644,801 645,802 646,803 647,804 648,805 649,807 650,808 651,809 652,810 653,811 654,812 655,813 656,814 657,815 658,816 659,817 660,818 661,819 662,820 663,821 664,822 665,822 666,823 667,824 668,825 669,826 670,826 671,827 672,828 673,828 674,829 675,830 676,830 677,831 678,832 679,832 680,833 681,833 682,834 683,834 684,835 685,835 686,835 687,836 688,836 689,837 690,837 691,837 692,837 693,838 694,838 695,838 696,838 697,839 698,839 699,839 700,839 701,839 702,839 703,839 704,839 705,840 706,840 707,840 708,840 709,839 710,839 711,839 712,839 713,839 714,839 715,839 716,839 717,838 718,838 719,838 720,838 721,837 722,837 723,837 724,837 725,836 726,836 727,835 728,835 729,835 730,834 731,834 732,833 733,833 734,832 735,832 736,831 737,831 738,830 739,829 740,829 741,828 742,827 743,827 744,826 745,825 746,825 747,824 748,823 749,822 750,822 751,821 752,820 753,819 754,818 755,817 756,817 757,816 758,815 759,814 760,813 761,812 762,811 763,810 764,809 765,808 766,807 767,806 768,805 769,804 770,803 771,802 772,800 773,799 774,798 775,797 776,796 777,795 778,793 779,792 780,791 781,790 782,788 783,787 784,786 785,785 786,783 787,782 788,781 789,779 790,778 791,777 792,775 793,774 794,773 795,771 796,770 797,768 798,767 799,766 800,764 801,763 802,761 803,760 804,758 805,757 806,755 807,754 808,752 809,751 810,749 811,748 812,746 813,745 814,743 815,742 816,740 817,738 818,737 819,735 820,734 821,732 822,730 823,729 824,727 825,726 826,724 827,722 828,721 829,719 830,717 831,716 832,714 833,712 834,711 835,709 836,707 837,706 838,704 839,702 840,701 841,699 842,697 843,696 844,694 845,692 846,691 847,689 848,687 849,686 850,684 851,682 852,680 853,679 854,677 855,675 856,674 857,672 858,670 859,669 860,667 861,665 862,664 863,662 864,660 865,658 866,657 867,655 868,653 869,652 870,650 871,648 872,647 873,645 874,643 875,642 876,640 877,639 878,637 879,635 880,634 881,632 882,630 883,629 884,627 885,626 886,624 887,622 888,621 889,619 890,618 891,616 892,614 893,613 894,611 895,610 896,608 897,607 898,605 899,604 900,602 901,601 902,599 903,598 904,596 905,595 906,593 907,592 908,590 909,589 910,588 911,586 912,585 913,583 914,582 915,581 916,579 917,578 918,577 919,575 920,574 921,573 922,571 923,570 924,569 925,567 926,566 927,565 928,564 929,563 930,561 931,560 932,559 933,558 934,557 935,555 936,554 937,553 938,552 939,551 940,550 941,549 942,548 943,547 944,546 945,545 946,544 947,543 948,542 949,541 950,540 951,539 952,538 953,537 954,536 955,535 956,535 957,534 958,533 959,532 960,531 961,531 962,530 963,529 964,528 965,528 966,527 967,526 968,525 969,525 970,524 971,524 972,523 973,522 974,522 975,521 976,521 977,520 978,520 979,519 980,519 981,518 982,518 983,517 984,517 985,516 986,516 987,516 988,515 989,515 990,515 991,514 992,514 993,514 994,514 995,513 996,513 997,513 998,513 999,513 1000,513 1001,512 1002,512 1003,512 1004,512 1005,512 1006,512 1007,512" 
        fill="none" stroke="white" stroke-width="32"
        stroke-linecap="round" stroke-linejoin="round"/>
<polyline points="16,512 17,512 18,512 19,512 20,512 21,512 22,512 23,511 24,511 25,511 26,511 27,511 28,510 29,510 30,510 31,510 32,509 33,509 34,509 35,508 36,508 37,507 38,507 39,506 40,506 41,505 42,505 43,504 44,504 45,503 46,502 47,502 48,501 49,500 50,500 51,499 52,498 53,498 54,497 55,496 56,495 57,494 58,493 59,493 60,492 61,491 62,490 63,489 64,488 65,487 66,486 67,485 68,484 69,483 70,482 71,480 72,479 73,478 74,477 75,476 76,475 77,473 78,472 79,471 80,470 81,468 82,467 83,466 84,464 85,463 86,462 87,460 88,459 89,458 90,456 91,455 92,453 93,452 94,450 95,449 96,447 97,446 98,444 99,443 100,441 101,439 102,438 103,436 104,434 105,433 106,431 107,429 108,428 109,426 110,424 111,423 112,421 113,419 114,417 115,416 116,414 117,412 118,410 119,408 120,407 121,405 122,403 123,401 124,399 125,397 126,395 127,393 128,391 129,390 130,388 131,386 132,384 133,382 134,380 135,378 136,376 137,374 138,372 139,370 140,368 141,366 142,364 143,362 144,360 145,358 146,356 147,354 148,352 149,349 150,347 151,345 152,343 153,341 154,339 155,337 156,335 157,333 158,331 159,329 160,326 161,324 162,322 163,320 164,318 165,316 166,314 167,312 168,310 169,307 170,305 171,303 172,301 173,299 174,297 175,295 176,293 177,291 178,288 179,286 180,284 181,282 182,280 183,278 184,276 185,274 186,272 187,269 188,267 189,265 190,263 191,261 192,259 193,257 194,255 195,253 196,251 197,249 198,247 199,245 200,243 201,241 202,239 203,237 204,235 205,233 206,231 207,229 208,227 209,225 210,223 211,221 212,219 213,217 214,215 215,213 216,211 217,209 218,207 219,206 220,204 221,202 222,200 223,198 224,196 225,195 226,193 227,191 228,189 229,187 230,186 231,184 232,182 233,181 234,179 235,177 236,176 237,174 238,172 239,171 240,169 241,167 242,166 243,164 244,163 245,161 246,160 247,158 248,157 249,155 250,154 251,152 252,151 253,150 254,148 255,147 256,145 257,144 258,143 259,142 260,140 261,139 262,138 263,137 264,135 265,134 266,133 267,132 268,131 269,130 270,129 271,127 272,126 273,125 274,124 275,123 276,122 277,121 278,121 279,120 280,119 281,118 282,117 283,116 284,115 285,115 286,114 287,113 288,112 289,112 290,111 291,111 292,110 293,109 294,109 295,108 296,108 297,107 298,107 299,106 300,106 301,105 302,105 303,105 304,104 305,104 306,104 307,103 308,103 309,103 310,103 311,102 312,102 313,102 314,102 315,102 316,102 317,102 318,102 319,102 320,102 321,102 322,102 323,102 324,102 325,103 326,103 327,103 328,103 329,104 330,104 331,104 332,105 333,105 334,105 335,106 336,106 337,107 338,107 339,108 340,108 341,109 342,109 343,110 344,111 345,111 346,112 347,113 348,113 349,114 350,115 351,116 352,117 353,118 354,119 355,119 356,120 357,121 358,122 359,123 360,124 361,126 362,127 363,128 364,129 365,130 366,131 367,133 368,134 369,135 370,136 371,138 372,139 373,140 374,142 375,143 376,145 377,146 378,148 379,149 380,151 381,152 382,154 383,156 384,157 385,159 386,161 387,162 388,164 389,166 390,168 391,169 392,171 393,173 394,175 395,177 396,179 397,181 398,183 399,185 400,187 401,189 402,191 403,193 404,195 405,197 406,199 407,201 408,203 409,206 410,208 411,210 412,212 413,215 414,217 415,219 416,222 417,224 418,226 419,229 420,231 421,234 422,236 423,239 424,241 425,244 426,246 427,249 428,251 429,254 430,256 431,259 432,262 433,264 434,267 435,270 436,272 437,275 438,278 439,281 440,283 441,286 442,289 443,292 444,295 445,298 446,300 447,303 448,306 449,309 450,312 451,315 452,318 453,321 454,324 455,327 456,330 457,333 458,336 459,339 460,342 461,345 462,348 463,351 464,354 465,357 466,361 467,364 468,367 469,370 470,373 471,376 472,380 473,383 474,386 475,389 476,392 477,396 478,399 479,402 480,405 481,409 482,412 483,415 484,418 485,422 486,425 487,428 488,432 489,435 490,438 491,442 492,445 493,448 494,452 495,455 496,458 497,462 498,465 499,468 500,472 501,475 502,478 503,482 504,485 505,488 506,492 507,495 508,499 509,502 510,505 511,509 512,512 513,515 514,519 515,522 516,525 517,529 518,532 519,536 520,539 521,542 522,546 523,549 524,552 525,556 526,559 527,562 528,566 529,569 530,572 531,576 532,579 533,582 534,586 535,589 536,592 537,596 538,599 539,602 540,606 541,609 542,612 543,615 544,619 545,622 546,625 547,628 548,632 549,635 550,638 551,641 552,644 553,648 554,651 555,654 556,657 557,660 558,663 559,667 560,670 561,673 562,676 563,679 564,682 565,685 566,688 567,691 568,694 569,697 570,700 571,703 572,706 573,709 574,712 575,715 576,718 577,721 578,724 579,726 580,729 581,732 582,735 583,738 584,741 585,743 586,746 587,749 588,752 589,754 590,757 591,760 592,762 593,765 594,768 595,770 596,773 597,775 598,778 599,780 600,783 601,785 602,788 603,790 604,793 605,795 606,798 607,800 608,802 609,805 610,807 611,809 612,812 613,814 614,816 615,818 616,821 617,823 618,825 619,827 620,829 621,831 622,833 623,835 624,837 625,839 626,841 627,843 628,845 629,847 630,849 631,851 632,853 633,855 634,856 635,858 636,860 637,862 638,863 639,865 640,867 641,868 642,870 643,872 644,873 645,875 646,876 647,878 648,879 649,881 650,882 651,884 652,885 653,886 654,888 655,889 656,890 657,891 658,893 659,894 660,895 661,896 662,897 663,898 664,900 665,901 666,902 667,903 668,904 669,905 670,905 671,906 672,907 673,908 674,909 675,910 676,911 677,911 678,912 679,913 680,913 681,914 682,915 683,915 684,916 685,916 686,917 687,917 688,918 689,918 690,919 691,919 692,919 693,920 694,920 695,920 696,921 697,921 698,921 699,921 700,922 701,922 702,922 703,922 704,922 705,922 706,922 707,922 708,922 709,922 710,922 711,922 712,922 713,922 714,921 715,921 716,921 717,921 718,920 719,920 720,920 721,919 722,919 723,919 724,918 725,918 726,917 727,917 728,916 729,916 730,915 731,915 732,914 733,913 734,913 735,912 736,912 737,911 738,910 739,909 740,909 741,908 742,907 743,906 744,905 745,904 746,903 747,903 748,902 749,901 750,900 751,899 752,898 753,897 754,895 755,894 756,893 757,892 758,891 759,890 760,889 761,887 762,886 763,885 764,884 765,882 766,881 767,880 768,879 769,877 770,876 771,874 772,873 773,872 774,870 775,869 776,867 777,866 778,864 779,863 780,861 781,860 782,858 783,857 784,855 785,853 786,852 787,850 788,848 789,847 790,845 791,843 792,842 793,840 794,838 795,837 796,835 797,833 798,831 799,829 800,828 801,826 802,824 803,822 804,820 805,818 806,817 807,815 808,813 809,811 810,809 811,807 812,805 813,803 814,801 815,799 816,797 817,795 818,793 819,791 820,789 821,787 822,785 823,783 824,781 825,779 826,777 827,775 828,773 829,771 830,769 831,767 832,765 833,763 834,761 835,759 836,757 837,755 838,752 839,750 840,748 841,746 842,744 843,742 844,740 845,738 846,736 847,733 848,731 849,729 850,727 851,725 852,723 853,721 854,719 855,717 856,714 857,712 858,710 859,708 860,706 861,704 862,702 863,700 864,698 865,695 866,693 867,691 868,689 869,687 870,685 871,683 872,681 873,679 874,677 875,675 876,672 877,670 878,668 879,666 880,664 881,662 882,660 883,658 884,656 885,654 886,652 887,650 888,648 889,646 890,644 891,642 892,640 893,638 894,636 895,634 896,633 897,631 898,629 899,627 900,625 901,623 902,621 903,619 904,617 905,616 906,614 907,612 908,610 909,608 910,607 911,605 912,603 913,601 914,600 915,598 916,596 917,595 918,593 919,591 920,590 921,588 922,586 923,585 924,583 925,581 926,580 927,578 928,577 929,575 930,574 931,572 932,571 933,569 934,568 935,566 936,565 937,564 938,562 939,561 940,560 941,558 942,557 943,556 944,554 945,553 946,552 947,551 948,549 949,548 950,547 951,546 952,545 953,544 954,542 955,541 956,540 957,539 958,538 959,537 960,536 961,535 962,534 963,533 964,532 965,531 966,531 967,530 968,529 969,528 970,527 971,526 972,526 973,525 974,524 975,524 976,523 977,522 978,522 979,521 980,520 981,520 982,519 983,519 984,518 985,518 986,517 987,517 988,516 989,516 990,515 991,515 992,515 993,514 994,514 995,514 996,514 997,513 998,513 999,513 1000,513 1001,513 1002,512 1003,512 1004,512 1005,512 1006,512 1007,512" 
        fill="none" stroke="white" stroke-width="32"
        stroke-linecap="round" stroke-linejoin="round"/>
<polyline points="16,512 17,512 18,512 19,512 20,512 21,512 22,512 23,511 24,511 25,511 26,511 27,510 28,510 29,510 30,509 31,509 32,509 33,508 34,508 35,507 36,507 37,506 38,506 39,505 40,505 41,504 42,503 43,503 44,502 45,501 46,501 47,500 48,499 49,498 50,497 51,496 52,496 53,495 54,494 55,493 56,492 57,491 58,490 59,489 60,488 61,486 62,485 63,484 64,483 65,482 66,481 67,479 68,478 69,477 70,475 71,474 72,473 73,471 74,470 75,469 76,467 77,466 78,464 79,463 80,461 81,460 82,458 83,457 84,455 85,453 86,452 87,450 88,448 89,447 90,445 91,443 92,441 93,440 94,438 95,436 96,434 97,432 98,430 99,429 100,427 101,425 102,423 103,421 104,419 105,417 106,415 107,413 108,411 109,409 110,407 111,405 112,403 113,400 114,398 115,396 116,394 117,392 118,390 119,388 120,385 121,383 122,381 123,379 124,376 125,374 126,372 127,370 128,367 129,365 130,363 131,360 132,358 133,356 134,353 135,351 136,348 137,346 138,344 139,341 140,339 141,336 142,334 143,332 144,329 145,327 146,324 147,322 148,319 149,317 150,314 151,312 152,309 153,307 154,304 155,302 156,299 157,297 158,294 159,292 160,289 161,287 162,284 163,282 164,279 165,276 166,274 167,271 168,269 169,266 170,264 171,261 172,259 173,256 174,254 175,251 176,248 177,246 178,243 179,241 180,238 181,236 182,233 183,231 184,228 185,226 186,223 187,221 188,218 189,216 190,213 191,211 192,208 193,206 194,203 195,201 196,198 197,196 198,193 199,191 200,188 201,186 202,184 203,181 204,179 205,176 206,174 207,172 208,169 209,167 210,165 211,162 212,160 213,158 214,155 215,153 216,151 217,148 218,146 219,144 220,142 221,139 222,137 223,135 224,133 225,131 226,129 227,126 228,124 229,122 230,120 231,118 232,116 233,114 234,112 235,110 236,108 237,106 238,104 239,102 240,100 241,98 242,96 243,94 244,92 245,91 246,89 247,87 248,85 249,84 250,82 251,80 252,78 253,77 254,75 255,73 256,72 257,70 258,69 259,67 260,65 261,64 262,62 263,61 264,60 265,58 266,57 267,55 268,54 269,53 270,51 271,50 272,49 273,48 274,46 275,45 276,44 277,43 278,42 279,41 280,40 281,39 282,38 283,37 284,36 285,35 286,34 287,33 288,32 289,31 290,30 291,30 292,29 293,28 294,28 295,27 296,26 297,26 298,25 299,25 300,24 301,24 302,23 303,23 304,22 305,22 306,21 307,21 308,21 309,21 310,20 311,20 312,20 313,20 314,20 315,20 316,19 317,19 318,19 319,19 320,20 321,20 322,20 323,20 324,20 325,20 326,20 327,21 328,21 329,21 330,22 331,22 332,23 333,23 334,23 335,24 336,24 337,25 338,26 339,26 340,27 341,28 342,28 343,29 344,30 345,31 346,32 347,32 348,33 349,34 350,35 351,36 352,37 353,38 354,39 355,40 356,42 357,43 358,44 359,45 360,47 361,48 362,49 363,51 364,52 365,53 366,55 367,56 368,58 369,59 370,61 371,62 372,64 373,66 374,67 375,69 376,71 377,73 378,74 379,76 380,78 381,80 382,82 383,84 384,86 385,88 386,90 387,92 388,94 389,96 390,98 391,100 392,103 393,105 394,107 395,109 396,112 397,114 398,116 399,119 400,121 401,124 402,126 403,129 404,131 405,134 406,136 407,139 408,141 409,144 410,147 411,149 412,152 413,155 414,158 415,160 416,163 417,166 418,169 419,172 420,175 421,178 422,181 423,184 424,187 425,190 426,193 427,196 428,199 429,202 430,205 431,208 432,211 433,215 434,218 435,221 436,224 437,228 438,231 439,234 440,238 441,241 442,244 443,248 444,251 445,254 446,258 447,261 448,265 449,268 450,272 451,275 452,279 453,282 454,286 455,290 456,293 457,297 458,301 459,304 460,308 461,312 462,315 463,319 464,323 465,326 466,330 467,334 468,338 469,341 470,345 471,349 472,353 473,357 474,361 475,364 476,368 477,372 478,376 479,380 480,384 481,388 482,392 483,396 484,400 485,404 486,407 487,411 488,415 489,419 490,423 491,427 492,431 493,435 494,439 495,443 496,447 497,451 498,455 499,459 500,463 501,467 502,472 503,476 504,480 505,484 506,488 507,492 508,496 509,500 510,504 511,508 512,512 513,516 514,520 515,524 516,528 517,532 518,536 519,540 520,544 521,548 522,552 523,557 524,561 525,565 526,569 527,573 528,577 529,581 530,585 531,589 532,593 533,597 534,601 535,605 536,609 537,613 538,617 539,620 540,624 541,628 542,632 543,636 544,640 545,644 546,648 547,652 548,656 549,660 550,663 551,667 552,671 553,675 554,679 555,683 556,686 557,690 558,694 559,698 560,701 561,705 562,709 563,712 564,716 565,720 566,723 567,727 568,731 569,734 570,738 571,742 572,745 573,749 574,752 575,756 576,759 577,763 578,766 579,770 580,773 581,776 582,780 583,783 584,786 585,790 586,793 587,796 588,800 589,803 590,806 591,809 592,813 593,816 594,819 595,822 596,825 597,828 598,831 599,834 600,837 601,840 602,843 603,846 604,849 605,852 606,855 607,858 608,861 609,864 610,866 611,869 612,872 613,875 614,877 615,880 616,883 617,885 618,888 619,890 620,893 621,895 622,898 623,900 624,903 625,905 626,908 627,910 628,912 629,915 630,917 631,919 632,921 633,924 634,926 635,928 636,930 637,932 638,934 639,936 640,938 641,940 642,942 643,944 644,946 645,948 646,950 647,951 648,953 649,955 650,957 651,958 652,960 653,962 654,963 655,965 656,966 657,968 658,969 659,971 660,972 661,973 662,975 663,976 664,977 665,979 666,980 667,981 668,982 669,984 670,985 671,986 672,987 673,988 674,989 675,990 676,991 677,992 678,992 679,993 680,994 681,995 682,996 683,996 684,997 685,998 686,998 687,999 688,1000 689,1000 690,1001 691,1001 692,1001 693,1002 694,1002 695,1003 696,1003 697,1003 698,1004 699,1004 700,1004 701,1004 702,1004 703,1004 704,1004 705,1005 706,1005 707,1005 708,1005 709,1004 710,1004 711,1004 712,1004 713,1004 714,1004 715,1003 716,1003 717,1003 718,1003 719,1002 720,1002 721,1001 722,1001 723,1000 724,1000 725,999 726,999 727,998 728,998 729,997 730,996 731,996 732,995 733,994 734,994 735,993 736,992 737,991 738,990 739,989 740,988 741,987 742,986 743,985 744,984 745,983 746,982 747,981 748,980 749,979 750,978 751,976 752,975 753,974 754,973 755,971 756,970 757,969 758,967 759,966 760,964 761,963 762,962 763,960 764,959 765,957 766,955 767,954 768,952 769,951 770,949 771,947 772,946 773,944 774,942 775,940 776,939 777,937 778,935 779,933 780,932 781,930 782,928 783,926 784,924 785,922 786,920 787,918 788,916 789,914 790,912 791,910 792,908 793,906 794,904 795,902 796,900 797,898 798,895 799,893 800,891 801,889 802,887 803,885 804,882 805,880 806,878 807,876 808,873 809,871 810,869 811,866 812,864 813,862 814,859 815,857 816,855 817,852 818,850 819,848 820,845 821,843 822,840 823,838 824,836 825,833 826,831 827,828 828,826 829,823 830,821 831,818 832,816 833,813 834,811 835,808 836,806 837,803 838,801 839,798 840,796 841,793 842,791 843,788 844,786 845,783 846,781 847,778 848,776 849,773 850,770 851,768 852,765 853,763 854,760 855,758 856,755 857,753 858,750 859,748 860,745 861,742 862,740 863,737 864,735 865,732 866,730 867,727 868,725 869,722 870,720 871,717 872,715 873,712 874,710 875,707 876,705 877,702 878,700 879,697 880,695 881,692 882,690 883,688 884,685 885,683 886,680 887,678 888,676 889,673 890,671 891,668 892,666 893,664 894,661 895,659 896,657 897,654 898,652 899,650 900,648 901,645 902,643 903,641 904,639 905,636 906,634 907,632 908,630 909,628 910,626 911,624 912,621 913,619 914,617 915,615 916,613 917,611 918,609 919,607 920,605 921,603 922,601 923,599 924,597 925,595 926,594 927,592 928,590 929,588 930,586 931,584 932,583 933,581 934,579 935,577 936,576 937,574 938,572 939,571 940,569 941,567 942,566 943,564 944,563 945,561 946,560 947,558 948,557 949,555 950,554 951,553 952,551 953,550 954,549 955,547 956,546 957,545 958,543 959,542 960,541 961,540 962,539 963,538 964,536 965,535 966,534 967,533 968,532 969,531 970,530 971,529 972,528 973,528 974,527 975,526 976,525 977,524 978,523 979,523 980,522 981,521 982,521 983,520 984,519 985,519 986,518 987,518 988,517 989,517 990,516 991,516 992,515 993,515 994,515 995,514 996,514 997,514 998,513 999,513 1000,513 1001,513 1002,512 1003,512 1004,512 1005,512 1006,512 1007,512" 
        fill="none" stroke="white" stroke-width="32"
        stroke-linecap="round" stroke-linejoin="round"/>
    </svg>
    