<svg xmlns="http://www.w3.org/2000/svg"
    width="1024" height="1024"
    viewBox="0 0 1024 1024">
    <polyline points="16,512 17,511 18,510 19,509 20,508 21,507 22,506 23,505 24,504 25,503 26,502 27,501 28,500 29,499 30,498 31,496 32,495 33,494 34,493 35,492 36,491 37,490 38,489 39,488 40,487 41,486 42,485 43,484 44,483 45,482 46,481 47,480 48,479 49,478 50,477 51,476 52,475 53,474 54,473 55,472 56,471 57,470 58,469 59,468 60,467 61,466 62,465 63,464 64,463 65,462 66,461 67,460 68,459 69,458 70,457 71,456 72,455 73,454 74,453 75,452 76,451 77,450 78,449 79,448 80,447 81,447 82,446 83,445 84,444 85,443 86,442 87,441 88,440 89,439 90,438 91,437 92,436 93,435 94,434 95,433 96,433 97,432 98,431 99,430 100,429 101,428 102,427 103,426 104,425 105,425 106,424 107,423 108,422 109,421 110,420 111,419 112,418 113,418 114,417 115,416 116,415 117,414 118,413 119,413 120,412 121,411 122,410 123,409 124,409 125,408 126,407 127,406 128,405 129,405 130,404 131,403 132,402 133,402 134,401 135,400 136,399 137,398 138,398 139,397 140,396 141,396 142,395 143,394 144,393 145,393 146,392 147,391 148,391 149,390 150,389 151,388 152,388 153,387 154,386 155,386 156,385 157,384 158,384 159,383 160,383 161,382 162,381 163,381 164,380 165,379 166,379 167,378 168,378 169,377 170,376 171,376 172,375 173,375 174,374 175,374 176,373 177,373 178,372 179,371 180,371 181,370 182,370 183,369 184,369 185,368 186,368 187,367 188,367 189,366 190,366 191,366 192,365 193,365 194,364 195,364 196,363 197,363 198,362 199,362 200,362 201,361 202,361 203,360 204,360 205,360 206,359 207,359 208,359 209,358 210,358 211,357 212,357 213,357 214,356 215,356 216,356 217,356 218,355 219,355 220,355 221,354 222,354 223,354 224,354 225,353 226,353 227,353 228,353 229,352 230,352 231,352 232,352 233,351 234,351 235,351 236,351 237,351 238,351 239,350 240,350 241,350 242,350 243,350 244,350 245,350 246,349 247,349 248,349 249,349 250,349 251,349 252,349 253,349 254,349 255,349 256,349 257,348 258,348 259,348 260,348 261,348 262,348 263,348 264,348 265,348 266,348 267,348 268,348 269,348 270,348 271,348 272,349 273,349 274,349 275,349 276,349 277,349 278,349 279,349 280,349 281,349 282,349 283,350 284,350 285,350 286,350 287,350 288,350 289,350 290,351 291,351 292,351 293,351 294,351 295,351 296,352 297,352 298,352 299,352 300,353 301,353 302,353 303,353 304,354 305,354 306,354 307,354 308,355 309,355 310,355 311,356 312,356 313,356 314,356 315,357 316,357 317,357 318,358 319,358 320,359 321,359 322,359 323,360 324,360 325,360 326,361 327,361 328,362 329,362 330,362 331,363 332,363 333,364 334,364 335,365 336,365 337,366 338,366 339,366 340,367 341,367 342,368 343,368 344,369 345,369 346,370 347,370 348,371 349,371 350,372 351,373 352,373 353,374 354,374 355,375 356,375 357,376 358,376 359,377 360,378 361,378 362,379 363,379 364,380 365,381 366,381 367,382 368,383 369,383 370,384 371,384 372,385 373,386 374,386 375,387 376,388 377,388 378,389 379,390 380,391 381,391 382,392 383,393 384,393 385,394 386,395 387,396 388,396 389,397 390,398 391,398 392,399 393,400 394,401 395,402 396,402 397,403 398,404 399,405 400,405 401,406 402,407 403,408 404,409 405,409 406,410 407,411 408,412 409,413 410,413 411,414 412,415 413,416 414,417 415,418 416,418 417,419 418,420 419,421 420,422 421,423 422,424 423,425 424,425 425,426 426,427 427,428 428,429 429,430 430,431 431,432 432,433 433,433 434,434 435,435 436,436 437,437 438,438 439,439 440,440 441,441 442,442 443,443 444,444 445,445 446,446 447,447 448,447 449,448 450,449 451,450 452,451 453,452 454,453 455,454 456,455 457,456 458,457 459,458 460,459 461,460 462,461 463,462 464,463 465,464 466,465 467,466 468,467 469,468 470,469 471,470 472,471 473,472 474,473 475,474 476,475 477,476 478,477 479,478 480,479 481,480 482,481 483,482 484,483 485,484 486,485 487,486 488,487 489,488 490,489 491,490 492,491 493,492 494,493 495,494 496,495 497,496 498,498 499,499 500,500 501,501 502,502 503,503 504,504 505,505 506,506 507,507 508,508 509,509 510,510 511,511 512,512 513,513 514,514 515,515 516,516 517,517 518,518 519,519 520,520 521,521 522,522 523,523 524,524 525,525 526,526 527,528 528,529 529,530 530,531 531,532 532,533 533,534 534,535 535,536 536,537 537,538 538,539 539,540 540,541 541,542 542,543 543,544 544,545 545,546 546,547 547,548 548,549 549,550 550,551 551,552 552,553 553,554 554,555 555,556 556,557 557,558 558,559 559,560 560,561 561,562 562,563 563,564 564,565 565,566 566,567 567,568 568,569 569,570 570,571 571,572 572,573 573,574 574,575 575,576 576,577 577,577 578,578 579,579 580,580 581,581 582,582 583,583 584,584 585,585 586,586 587,587 588,588 589,589 590,590 591,591 592,591 593,592 594,593 595,594 596,595 597,596 598,597 599,598 600,599 601,599 602,600 603,601 604,602 605,603 606,604 607,605 608,606 609,606 610,607 611,608 612,609 613,610 614,611 615,611 616,612 617,613 618,614 619,615 620,615 621,616 622,617 623,618 624,619 625,619 626,620 627,621 628,622 629,622 630,623 631,624 632,625 633,626 634,626 635,627 636,628 637,628 638,629 639,630 640,631 641,631 642,632 643,633 644,633 645,634 646,635 647,636 648,636 649,637 650,638 651,638 652,639 653,640 654,640 655,641 656,641 657,642 658,643 659,643 660,644 661,645 662,645 663,646 664,646 665,647 666,648 667,648 668,649 669,649 670,650 671,650 672,651 673,651 674,652 675,653 676,653 677,654 678,654 679,655 680,655 681,656 682,656 683,657 684,657 685,658 686,658 687,658 688,659 689,659 690,660 691,660 692,661 693,661 694,662 695,662 696,662 697,663 698,663 699,664 700,664 701,664 702,665 703,665 704,665 705,666 706,666 707,667 708,667 709,667 710,668 711,668 712,668 713,668 714,669 715,669 716,669 717,670 718,670 719,670 720,670 721,671 722,671 723,671 724,671 725,672 726,672 727,672 728,672 729,673 730,673 731,673 732,673 733,673 734,673 735,674 736,674 737,674 738,674 739,674 740,674 741,674 742,675 743,675 744,675 745,675 746,675 747,675 748,675 749,675 750,675 751,675 752,675 753,676 754,676 755,676 756,676 757,676 758,676 759,676 760,676 761,676 762,676 763,676 764,676 765,676 766,676 767,676 768,675 769,675 770,675 771,675 772,675 773,675 774,675 775,675 776,675 777,675 778,675 779,674 780,674 781,674 782,674 783,674 784,674 785,674 786,673 787,673 788,673 789,673 790,673 791,673 792,672 793,672 794,672 795,672 796,671 797,671 798,671 799,671 800,670 801,670 802,670 803,670 804,669 805,669 806,669 807,668 808,668 809,668 810,668 811,667 812,667 813,667 814,666 815,666 816,665 817,665 818,665 819,664 820,664 821,664 822,663 823,663 824,662 825,662 826,662 827,661 828,661 829,660 830,660 831,659 832,659 833,658 834,658 835,658 836,657 837,657 838,656 839,656 840,655 841,655 842,654 843,654 844,653 845,653 846,652 847,651 848,651 849,650 850,650 851,649 852,649 853,648 854,648 855,647 856,646 857,646 858,645 859,645 860,644 861,643 862,643 863,642 864,641 865,641 866,640 867,640 868,639 869,638 870,638 871,637 872,636 873,636 874,635 875,634 876,633 877,633 878,632 879,631 880,631 881,630 882,629 883,628 884,628 885,627 886,626 887,626 888,625 889,624 890,623 891,622 892,622 893,621 894,620 895,619 896,619 897,618 898,617 899,616 900,615 901,615 902,614 903,613 904,612 905,611 906,611 907,610 908,609 909,608 910,607 911,606 912,606 913,605 914,604 915,603 916,602 917,601 918,600 919,599 920,599 921,598 922,597 923,596 924,595 925,594 926,593 927,592 928,591 929,591 930,590 931,589 932,588 933,587 934,586 935,585 936,584 937,583 938,582 939,581 940,580 941,579 942,578 943,577 944,577 945,576 946,575 947,574 948,573 949,572 950,571 951,570 952,569 953,568 954,567 955,566 956,565 957,564 958,563 959,562 960,561 961,560 962,559 963,558 964,557 965,556 966,555 967,554 968,553 969,552 970,551 971,550 972,549 973,548 974,547 975,546 976,545 977,544 978,543 979,542 980,541 981,540 982,539 983,538 984,537 985,536 986,535 987,534 988,533 989,532 990,531 991,530 992,529 993,528 994,526 995,525 996,524 997,523 998,522 999,521 1000,520 1001,519 1002,518 1003,517 1004,516 1005,515 1006,514 1007,513" fill="none" stroke="#FFFFFF" stroke-width="32" stroke-linecap="round" stroke-linejoin="round"/>
<polyline points="16,512 17,510 18,508 19,506 20,504 21,502 22,500 23,497 24,495 25,493 26,491 27,489 28,487 29,485 30,483 31,481 32,479 33,477 34,475 35,473 36,471 37,469 38,467 39,464 40,462 41,460 42,458 43,456 44,454 45,452 46,450 47,448 48,446 49,444 50,442 51,440 52,438 53,436 54,434 55,432 56,430 57,428 58,426 59,424 60,422 61,420 62,418 63,416 64,414 65,412 66,410 67,408 68,406 69,404 70,402 71,400 72,398 73,396 74,394 75,392 76,391 77,389 78,387 79,385 80,383 81,381 82,379 83,377 84,375 85,373 86,372 87,370 88,368 89,366 90,364 91,362 92,360 93,359 94,357 95,355 96,353 97,351 98,350 99,348 100,346 101,344 102,342 103,341 104,339 105,337 106,335 107,334 108,332 109,330 110,328 111,327 112,325 113,323 114,322 115,320 116,318 117,317 118,315 119,313 120,312 121,310 122,308 123,307 124,305 125,304 126,302 127,300 128,299 129,297 130,296 131,294 132,293 133,291 134,289 135,288 136,286 137,285 138,283 139,282 140,281 141,279 142,278 143,276 144,275 145,273 146,272 147,270 148,269 149,268 150,266 151,265 152,264 153,262 154,261 155,260 156,258 157,257 158,256 159,254 160,253 161,252 162,251 163,249 164,248 165,247 166,246 167,245 168,243 169,242 170,241 171,240 172,239 173,238 174,236 175,235 176,234 177,233 178,232 179,231 180,230 181,229 182,228 183,227 184,226 185,225 186,224 187,223 188,222 189,221 190,220 191,219 192,218 193,217 194,216 195,215 196,215 197,214 198,213 199,212 200,211 201,210 202,210 203,209 204,208 205,207 206,206 207,206 208,205 209,204 210,204 211,203 212,202 213,202 214,201 215,200 216,200 217,199 218,198 219,198 220,197 221,197 222,196 223,196 224,195 225,195 226,194 227,194 228,193 229,193 230,192 231,192 232,191 233,191 234,191 235,190 236,190 237,189 238,189 239,189 240,188 241,188 242,188 243,188 244,187 245,187 246,187 247,187 248,186 249,186 250,186 251,186 252,186 253,185 254,185 255,185 256,185 257,185 258,185 259,185 260,185 261,185 262,185 263,185 264,185 265,185 266,185 267,185 268,185 269,185 270,185 271,185 272,185 273,185 274,185 275,185 276,186 277,186 278,186 279,186 280,186 281,187 282,187 283,187 284,187 285,188 286,188 287,188 288,188 289,189 290,189 291,189 292,190 293,190 294,191 295,191 296,191 297,192 298,192 299,193 300,193 301,194 302,194 303,195 304,195 305,196 306,196 307,197 308,197 309,198 310,198 311,199 312,200 313,200 314,201 315,202 316,202 317,203 318,204 319,204 320,205 321,206 322,206 323,207 324,208 325,209 326,210 327,210 328,211 329,212 330,213 331,214 332,215 333,215 334,216 335,217 336,218 337,219 338,220 339,221 340,222 341,223 342,224 343,225 344,226 345,227 346,228 347,229 348,230 349,231 350,232 351,233 352,234 353,235 354,236 355,238 356,239 357,240 358,241 359,242 360,243 361,245 362,246 363,247 364,248 365,249 366,251 367,252 368,253 369,254 370,256 371,257 372,258 373,260 374,261 375,262 376,264 377,265 378,266 379,268 380,269 381,270 382,272 383,273 384,275 385,276 386,278 387,279 388,281 389,282 390,283 391,285 392,286 393,288 394,289 395,291 396,293 397,294 398,296 399,297 400,299 401,300 402,302 403,304 404,305 405,307 406,308 407,310 408,312 409,313 410,315 411,317 412,318 413,320 414,322 415,323 416,325 417,327 418,328 419,330 420,332 421,334 422,335 423,337 424,339 425,341 426,342 427,344 428,346 429,348 430,350 431,351 432,353 433,355 434,357 435,359 436,360 437,362 438,364 439,366 440,368 441,370 442,372 443,373 444,375 445,377 446,379 447,381 448,383 449,385 450,387 451,389 452,391 453,392 454,394 455,396 456,398 457,400 458,402 459,404 460,406 461,408 462,410 463,412 464,414 465,416 466,418 467,420 468,422 469,424 470,426 471,428 472,430 473,432 474,434 475,436 476,438 477,440 478,442 479,444 480,446 481,448 482,450 483,452 484,454 485,456 486,458 487,460 488,462 489,464 490,467 491,469 492,471 493,473 494,475 495,477 496,479 497,481 498,483 499,485 500,487 501,489 502,491 503,493 504,495 505,497 506,500 507,502 508,504 509,506 510,508 511,510 512,512 513,514 514,516 515,518 516,520 517,522 518,524 519,527 520,529 521,531 522,533 523,535 524,537 525,539 526,541 527,543 528,545 529,547 530,549 531,551 532,553 533,555 534,557 535,560 536,562 537,564 538,566 539,568 540,570 541,572 542,574 543,576 544,578 545,580 546,582 547,584 548,586 549,588 550,590 551,592 552,594 553,596 554,598 555,600 556,602 557,604 558,606 559,608 560,610 561,612 562,614 563,616 564,618 565,620 566,622 567,624 568,626 569,628 570,630 571,632 572,633 573,635 574,637 575,639 576,641 577,643 578,645 579,647 580,649 581,651 582,652 583,654 584,656 585,658 586,660 587,662 588,664 589,665 590,667 591,669 592,671 593,673 594,674 595,676 596,678 597,680 598,682 599,683 600,685 601,687 602,689 603,690 604,692 605,694 606,696 607,697 608,699 609,701 610,702 611,704 612,706 613,707 614,709 615,711 616,712 617,714 618,716 619,717 620,719 621,720 622,722 623,724 624,725 625,727 626,728 627,730 628,731 629,733 630,735 631,736 632,738 633,739 634,741 635,742 636,743 637,745 638,746 639,748 640,749 641,751 642,752 643,754 644,755 645,756 646,758 647,759 648,760 649,762 650,763 651,764 652,766 653,767 654,768 655,770 656,771 657,772 658,773 659,775 660,776 661,777 662,778 663,779 664,781 665,782 666,783 667,784 668,785 669,786 670,788 671,789 672,790 673,791 674,792 675,793 676,794 677,795 678,796 679,797 680,798 681,799 682,800 683,801 684,802 685,803 686,804 687,805 688,806 689,807 690,808 691,809 692,809 693,810 694,811 695,812 696,813 697,814 698,814 699,815 700,816 701,817 702,818 703,818 704,819 705,820 706,820 707,821 708,822 709,822 710,823 711,824 712,824 713,825 714,826 715,826 716,827 717,827 718,828 719,828 720,829 721,829 722,830 723,830 724,831 725,831 726,832 727,832 728,833 729,833 730,833 731,834 732,834 733,835 734,835 735,835 736,836 737,836 738,836 739,836 740,837 741,837 742,837 743,837 744,838 745,838 746,838 747,838 748,838 749,839 750,839 751,839 752,839 753,839 754,839 755,839 756,839 757,839 758,839 759,839 760,839 761,839 762,839 763,839 764,839 765,839 766,839 767,839 768,839 769,839 770,839 771,839 772,838 773,838 774,838 775,838 776,838 777,837 778,837 779,837 780,837 781,836 782,836 783,836 784,836 785,835 786,835 787,835 788,834 789,834 790,833 791,833 792,833 793,832 794,832 795,831 796,831 797,830 798,830 799,829 800,829 801,828 802,828 803,827 804,827 805,826 806,826 807,825 808,824 809,824 810,823 811,822 812,822 813,821 814,820 815,820 816,819 817,818 818,818 819,817 820,816 821,815 822,814 823,814 824,813 825,812 826,811 827,810 828,809 829,809 830,808 831,807 832,806 833,805 834,804 835,803 836,802 837,801 838,800 839,799 840,798 841,797 842,796 843,795 844,794 845,793 846,792 847,791 848,790 849,789 850,788 851,786 852,785 853,784 854,783 855,782 856,781 857,779 858,778 859,777 860,776 861,775 862,773 863,772 864,771 865,770 866,768 867,767 868,766 869,764 870,763 871,762 872,760 873,759 874,758 875,756 876,755 877,754 878,752 879,751 880,749 881,748 882,746 883,745 884,743 885,742 886,741 887,739 888,738 889,736 890,735 891,733 892,731 893,730 894,728 895,727 896,725 897,724 898,722 899,720 900,719 901,717 902,716 903,714 904,712 905,711 906,709 907,707 908,706 909,704 910,702 911,701 912,699 913,697 914,696 915,694 916,692 917,690 918,689 919,687 920,685 921,683 922,682 923,680 924,678 925,676 926,674 927,673 928,671 929,669 930,667 931,665 932,664 933,662 934,660 935,658 936,656 937,654 938,652 939,651 940,649 941,647 942,645 943,643 944,641 945,639 946,637 947,635 948,633 949,632 950,630 951,628 952,626 953,624 954,622 955,620 956,618 957,616 958,614 959,612 960,610 961,608 962,606 963,604 964,602 965,600 966,598 967,596 968,594 969,592 970,590 971,588 972,586 973,584 974,582 975,580 976,578 977,576 978,574 979,572 980,570 981,568 982,566 983,564 984,562 985,560 986,557 987,555 988,553 989,551 990,549 991,547 992,545 993,543 994,541 995,539 996,537 997,535 998,533 999,531 1000,529 1001,527 1002,524 1003,522 1004,520 1005,518 1006,516 1007,514" fill="none" stroke="#FFFFFF" stroke-width="32" stroke-linecap="round" stroke-linejoin="round"/>
<polyline points="16,512 17,509 18,506 19,503 20,500 21,496 22,493 23,490 24,487 25,484 26,481 27,478 28,475 29,472 30,469 31,465 32,462 33,459 34,456 35,453 36,450 37,447 38,444 39,441 40,438 41,435 42,432 43,428 44,425 45,422 46,419 47,416 48,413 49,410 50,407 51,404 52,401 53,398 54,395 55,392 56,389 57,386 58,383 59,380 60,377 61,374 62,371 63,368 64,365 65,362 66,359 67,356 68,353 69,350 70,347 71,344 72,341 73,339 74,336 75,333 76,330 77,327 78,324 79,321 80,318 81,316 82,313 83,310 84,307 85,304 86,301 87,299 88,296 89,293 90,290 91,287 92,285 93,282 94,279 95,276 96,274 97,271 98,268 99,266 100,263 101,260 102,258 103,255 104,252 105,250 106,247 107,244 108,242 109,239 110,237 111,234 112,231 113,229 114,226 115,224 116,221 117,219 118,216 119,214 120,211 121,209 122,207 123,204 124,202 125,199 126,197 127,195 128,192 129,190 130,187 131,185 132,183 133,181 134,178 135,176 136,174 137,171 138,169 139,167 140,165 141,163 142,160 143,158 144,156 145,154 146,152 147,150 148,148 149,146 150,144 151,141 152,139 153,137 154,135 155,133 156,131 157,129 158,128 159,126 160,124 161,122 162,120 163,118 164,116 165,114 166,113 167,111 168,109 169,107 170,105 171,104 172,102 173,100 174,99 175,97 176,95 177,94 178,92 179,90 180,89 181,87 182,86 183,84 184,83 185,81 186,80 187,78 188,77 189,75 190,74 191,73 192,71 193,70 194,68 195,67 196,66 197,65 198,63 199,62 200,61 201,60 202,58 203,57 204,56 205,55 206,54 207,53 208,52 209,50 210,49 211,48 212,47 213,46 214,45 215,44 216,43 217,43 218,42 219,41 220,40 221,39 222,38 223,37 224,37 225,36 226,35 227,34 228,34 229,33 230,32 231,32 232,31 233,30 234,30 235,29 236,29 237,28 238,28 239,27 240,27 241,26 242,26 243,25 244,25 245,25 246,24 247,24 248,23 249,23 250,23 251,23 252,22 253,22 254,22 255,22 256,22 257,21 258,21 259,21 260,21 261,21 262,21 263,21 264,21 265,21 266,21 267,21 268,21 269,21 270,21 271,21 272,22 273,22 274,22 275,22 276,22 277,23 278,23 279,23 280,23 281,24 282,24 283,25 284,25 285,25 286,26 287,26 288,27 289,27 290,28 291,28 292,29 293,29 294,30 295,30 296,31 297,32 298,32 299,33 300,34 301,34 302,35 303,36 304,37 305,37 306,38 307,39 308,40 309,41 310,42 311,43 312,43 313,44 314,45 315,46 316,47 317,48 318,49 319,50 320,52 321,53 322,54 323,55 324,56 325,57 326,58 327,60 328,61 329,62 330,63 331,65 332,66 333,67 334,68 335,70 336,71 337,73 338,74 339,75 340,77 341,78 342,80 343,81 344,83 345,84 346,86 347,87 348,89 349,90 350,92 351,94 352,95 353,97 354,99 355,100 356,102 357,104 358,105 359,107 360,109 361,111 362,113 363,114 364,116 365,118 366,120 367,122 368,124 369,126 370,128 371,129 372,131 373,133 374,135 375,137 376,139 377,141 378,144 379,146 380,148 381,150 382,152 383,154 384,156 385,158 386,160 387,163 388,165 389,167 390,169 391,171 392,174 393,176 394,178 395,181 396,183 397,185 398,187 399,190 400,192 401,195 402,197 403,199 404,202 405,204 406,207 407,209 408,211 409,214 410,216 411,219 412,221 413,224 414,226 415,229 416,231 417,234 418,237 419,239 420,242 421,244 422,247 423,250 424,252 425,255 426,258 427,260 428,263 429,266 430,268 431,271 432,274 433,276 434,279 435,282 436,285 437,287 438,290 439,293 440,296 441,299 442,301 443,304 444,307 445,310 446,313 447,316 448,318 449,321 450,324 451,327 452,330 453,333 454,336 455,339 456,341 457,344 458,347 459,350 460,353 461,356 462,359 463,362 464,365 465,368 466,371 467,374 468,377 469,380 470,383 471,386 472,389 473,392 474,395 475,398 476,401 477,404 478,407 479,410 480,413 481,416 482,419 483,422 484,425 485,428 486,432 487,435 488,438 489,441 490,444 491,447 492,450 493,453 494,456 495,459 496,462 497,465 498,469 499,472 500,475 501,478 502,481 503,484 504,487 505,490 506,493 507,496 508,500 509,503 510,506 511,509 512,512 513,515 514,518 515,521 516,524 517,528 518,531 519,534 520,537 521,540 522,543 523,546 524,549 525,552 526,555 527,559 528,562 529,565 530,568 531,571 532,574 533,577 534,580 535,583 536,586 537,589 538,592 539,596 540,599 541,602 542,605 543,608 544,611 545,614 546,617 547,620 548,623 549,626 550,629 551,632 552,635 553,638 554,641 555,644 556,647 557,650 558,653 559,656 560,659 561,662 562,665 563,668 564,671 565,674 566,677 567,680 568,683 569,685 570,688 571,691 572,694 573,697 574,700 575,703 576,706 577,708 578,711 579,714 580,717 581,720 582,723 583,725 584,728 585,731 586,734 587,737 588,739 589,742 590,745 591,748 592,750 593,753 594,756 595,758 596,761 597,764 598,766 599,769 600,772 601,774 602,777 603,780 604,782 605,785 606,787 607,790 608,793 609,795 610,798 611,800 612,803 613,805 614,808 615,810 616,813 617,815 618,817 619,820 620,822 621,825 622,827 623,829 624,832 625,834 626,837 627,839 628,841 629,843 630,846 631,848 632,850 633,853 634,855 635,857 636,859 637,861 638,864 639,866 640,868 641,870 642,872 643,874 644,876 645,878 646,880 647,883 648,885 649,887 650,889 651,891 652,893 653,895 654,896 655,898 656,900 657,902 658,904 659,906 660,908 661,910 662,911 663,913 664,915 665,917 666,919 667,920 668,922 669,924 670,925 671,927 672,929 673,930 674,932 675,934 676,935 677,937 678,938 679,940 680,941 681,943 682,944 683,946 684,947 685,949 686,950 687,951 688,953 689,954 690,956 691,957 692,958 693,959 694,961 695,962 696,963 697,964 698,966 699,967 700,968 701,969 702,970 703,971 704,972 705,974 706,975 707,976 708,977 709,978 710,979 711,980 712,981 713,981 714,982 715,983 716,984 717,985 718,986 719,987 720,987 721,988 722,989 723,990 724,990 725,991 726,992 727,992 728,993 729,994 730,994 731,995 732,995 733,996 734,996 735,997 736,997 737,998 738,998 739,999 740,999 741,999 742,1000 743,1000 744,1001 745,1001 746,1001 747,1001 748,1002 749,1002 750,1002 751,1002 752,1002 753,1003 754,1003 755,1003 756,1003 757,1003 758,1003 759,1003 760,1003 761,1003 762,1003 763,1003 764,1003 765,1003 766,1003 767,1003 768,1002 769,1002 770,1002 771,1002 772,1002 773,1001 774,1001 775,1001 776,1001 777,1000 778,1000 779,999 780,999 781,999 782,998 783,998 784,997 785,997 786,996 787,996 788,995 789,995 790,994 791,994 792,993 793,992 794,992 795,991 796,990 797,990 798,989 799,988 800,987 801,987 802,986 803,985 804,984 805,983 806,982 807,981 808,981 809,980 810,979 811,978 812,977 813,976 814,975 815,974 816,972 817,971 818,970 819,969 820,968 821,967 822,966 823,964 824,963 825,962 826,961 827,959 828,958 829,957 830,956 831,954 832,953 833,951 834,950 835,949 836,947 837,946 838,944 839,943 840,941 841,940 842,938 843,937 844,935 845,934 846,932 847,930 848,929 849,927 850,925 851,924 852,922 853,920 854,919 855,917 856,915 857,913 858,911 859,910 860,908 861,906 862,904 863,902 864,900 865,898 866,896 867,895 868,893 869,891 870,889 871,887 872,885 873,883 874,880 875,878 876,876 877,874 878,872 879,870 880,868 881,866 882,864 883,861 884,859 885,857 886,855 887,853 888,850 889,848 890,846 891,843 892,841 893,839 894,837 895,834 896,832 897,829 898,827 899,825 900,822 901,820 902,817 903,815 904,813 905,810 906,808 907,805 908,803 909,800 910,798 911,795 912,793 913,790 914,787 915,785 916,782 917,780 918,777 919,774 920,772 921,769 922,766 923,764 924,761 925,758 926,756 927,753 928,750 929,748 930,745 931,742 932,739 933,737 934,734 935,731 936,728 937,725 938,723 939,720 940,717 941,714 942,711 943,708 944,706 945,703 946,700 947,697 948,694 949,691 950,688 951,685 952,683 953,680 954,677 955,674 956,671 957,668 958,665 959,662 960,659 961,656 962,653 963,650 964,647 965,644 966,641 967,638 968,635 969,632 970,629 971,626 972,623 973,620 974,617 975,614 976,611 977,608 978,605 979,602 980,599 981,596 982,592 983,589 984,586 985,583 986,580 987,577 988,574 989,571 990,568 991,565 992,562 993,559 994,555 995,552 996,549 997,546 998,543 999,540 1000,537 1001,534 1002,531 1003,528 1004,524 1005,521 1006,518 1007,515" fill="none" stroke="#FFFFFF" stroke-width="32" stroke-linecap="round" stroke-linejoin="round"/>
    </svg>
    