<svg xmlns="http://www.w3.org/2000/svg" width="1024" height="1024" viewBox="0 0 1024 1024">
  <path d="M 16.000,512.000 C 26.333,512.000 36.667,510.632 47.000,507.962 C 57.333,505.292 67.667,501.320 78.000,496.236 C 88.333,491.152 98.667,484.957 109.000,477.948 C 119.333,470.938 129.667,463.118 140.000,454.864 C 150.333,446.610 160.667,437.927 171.000,429.240 C 181.333,420.554 191.667,411.868 202.000,403.622 C 212.333,395.376 222.667,387.573 233.000,380.623 C 243.333,373.674 253.667,367.582 264.000,362.696 C 274.333,357.810 284.667,354.132 295.000,351.917 C 305.333,349.702 315.667,348.951 326.000,349.801 C 336.333,350.652 346.667,353.105 357.000,357.168 C 367.333,361.231 377.667,366.903 388.000,374.061 C 398.333,381.220 408.667,389.863 419.000,399.744 C 429.333,409.626 439.667,420.744 450.000,432.750 C 460.333,444.756 470.667,457.649 481.000,471.006 C 491.333,484.362 501.667,498.180 512.000,512.000 C 522.333,525.820 532.667,539.638 543.000,552.994 C 553.333,566.351 563.667,579.244 574.000,591.250 C 584.333,603.256 594.667,614.374 605.000,624.256 C 615.333,634.137 625.667,642.780 636.000,649.939 C 646.333,657.097 656.667,662.769 667.000,666.832 C 677.333,670.895 687.667,673.348 698.000,674.199 C 708.333,675.049 718.667,674.298 729.000,672.083 C 739.333,669.868 749.667,666.190 760.000,661.304 C 770.333,656.418 780.667,650.326 791.000,643.377 C 801.333,636.427 811.667,628.624 822.000,620.378 C 832.333,612.132 842.667,603.446 853.000,594.760 C 863.333,586.073 873.667,577.390 884.000,569.136 C 894.333,560.882 904.667,553.062 915.000,546.052 C 925.333,539.043 935.667,532.848 946.000,527.764 C 956.333,522.680 966.667,518.708 977.000,516.038 C 987.333,513.368 997.667,512.000 1008.000,512.000"
    fill="none" stroke="white" stroke-width="32" stroke-linecap="round" stroke-linejoin="round"/>
  <path d="M 16.000,512.000 C 26.333,512.000 36.667,509.938 47.000,505.913 C 57.333,501.888 67.667,495.900 78.000,488.235 C 88.333,480.570 98.667,471.230 109.000,460.663 C 119.333,450.097 129.667,438.306 140.000,425.863 C 150.333,413.420 160.667,400.329 171.000,387.234 C 181.333,374.139 191.667,361.044 202.000,348.613 C 212.333,336.181 222.667,324.416 233.000,313.940 C 243.333,303.464 253.667,294.279 264.000,286.913 C 274.333,279.548 284.667,274.003 295.000,270.663 C 305.333,267.323 315.667,266.191 326.000,267.473 C 336.333,268.756 346.667,272.454 357.000,278.579 C 367.333,284.704 377.667,293.256 388.000,304.047 C 398.333,314.839 408.667,327.869 419.000,342.766 C 429.333,357.663 439.667,374.424 450.000,392.525 C 460.333,410.625 470.667,430.062 481.000,450.198 C 491.333,470.334 501.667,491.166 512.000,512.000 C 522.333,532.834 532.667,553.666 543.000,573.802 C 553.333,593.938 563.667,613.375 574.000,631.475 C 584.333,649.576 594.667,666.337 605.000,681.234 C 615.333,696.131 625.667,709.161 636.000,719.953 C 646.333,730.744 656.667,739.296 667.000,745.421 C 677.333,751.546 687.667,755.244 698.000,756.527 C 708.333,757.809 718.667,756.677 729.000,753.337 C 739.333,749.997 749.667,744.452 760.000,737.087 C 770.333,729.721 780.667,720.536 791.000,710.060 C 801.333,699.584 811.667,687.819 822.000,675.387 C 832.333,662.956 842.667,649.861 853.000,636.766 C 863.333,623.671 873.667,610.580 884.000,598.137 C 894.333,585.694 904.667,573.903 915.000,563.337 C 925.333,552.770 935.667,543.430 946.000,535.765 C 956.333,528.100 966.667,522.112 977.000,518.087 C 987.333,514.062 997.667,512.000 1008.000,512.000"
    fill="none" stroke="white" stroke-width="32" stroke-linecap="round" stroke-linejoin="round"/>
  <path d="M 16.000,512.000 C 26.333,512.000 36.667,509.244 47.000,503.864 C 57.333,498.483 67.667,490.479 78.000,480.234 C 88.333,469.988 98.667,457.504 109.000,443.379 C 119.333,429.255 129.667,413.494 140.000,396.862 C 150.333,380.230 160.667,362.731 171.000,345.227 C 181.333,327.723 191.667,310.220 202.000,293.603 C 212.333,276.986 222.667,261.260 233.000,247.256 C 243.333,233.253 253.667,220.977 264.000,211.131 C 274.333,201.285 284.667,193.873 295.000,189.409 C 305.333,184.945 315.667,183.431 326.000,185.145 C 336.333,186.859 346.667,191.802 357.000,199.989 C 367.333,208.177 377.667,219.608 388.000,234.033 C 398.333,248.458 408.667,265.875 419.000,285.787 C 429.333,305.700 439.667,328.105 450.000,352.299 C 460.333,376.494 470.667,402.474 481.000,429.390 C 491.333,456.306 501.667,484.152 512.000,512.000 C 522.333,539.848 532.667,567.694 543.000,594.610 C 553.333,621.526 563.667,647.506 574.000,671.701 C 584.333,695.895 594.667,718.300 605.000,738.213 C 615.333,758.125 625.667,775.542 636.000,789.967 C 646.333,804.392 656.667,815.823 667.000,824.011 C 677.333,832.198 687.667,837.141 698.000,838.855 C 708.333,840.569 718.667,839.055 729.000,834.591 C 739.333,830.127 749.667,822.715 760.000,812.869 C 770.333,803.023 780.667,790.747 791.000,776.744 C 801.333,762.740 811.667,747.014 822.000,730.397 C 832.333,713.780 842.667,696.277 853.000,678.773 C 863.333,661.269 873.667,643.770 884.000,627.138 C 894.333,610.506 904.667,594.745 915.000,580.621 C 925.333,566.496 935.667,554.012 946.000,543.766 C 956.333,533.521 966.667,525.517 977.000,520.136 C 987.333,514.756 997.667,512.000 1008.000,512.000"
    fill="none" stroke="white" stroke-width="32" stroke-linecap="round" stroke-linejoin="round"/>
  <path d="M 16.000,512.000 C 26.333,512.000 36.667,508.550 47.000,501.814 C 57.333,495.078 67.667,485.059 78.000,472.232 C 88.333,459.406 98.667,443.777 109.000,426.095 C 119.333,408.413 129.667,388.683 140.000,367.861 C 150.333,347.040 160.667,325.133 171.000,303.220 C 181.333,281.307 191.667,259.395 202.000,238.593 C 212.333,217.790 222.667,198.103 233.000,180.573 C 243.333,163.042 253.667,147.674 264.000,135.348 C 274.333,123.022 284.667,113.743 295.000,108.155 C 305.333,102.566 315.667,100.671 326.000,102.817 C 336.333,104.963 346.667,111.151 357.000,121.400 C 367.333,131.650 377.667,145.960 388.000,164.019 C 398.333,182.077 408.667,203.881 419.000,228.809 C 429.333,253.737 439.667,281.785 450.000,312.074 C 460.333,342.363 470.667,374.887 481.000,408.582 C 491.333,442.277 501.667,477.137 512.000,512.000 C 522.333,546.863 532.667,581.723 543.000,615.418 C 553.333,649.113 563.667,681.637 574.000,711.926 C 584.333,742.215 594.667,770.263 605.000,795.191 C 615.333,820.119 625.667,841.923 636.000,859.981 C 646.333,878.040 656.667,892.350 667.000,902.600 C 677.333,912.849 687.667,919.037 698.000,921.183 C 708.333,923.329 718.667,921.434 729.000,915.845 C 739.333,910.257 749.667,900.978 760.000,888.652 C 770.333,876.326 780.667,860.958 791.000,843.427 C 801.333,825.897 811.667,806.210 822.000,785.407 C 832.333,764.605 842.667,742.693 853.000,720.780 C 863.333,698.867 873.667,676.960 884.000,656.139 C 894.333,635.317 904.667,615.587 915.000,597.905 C 925.333,580.223 935.667,564.594 946.000,551.768 C 956.333,538.941 966.667,528.922 977.000,522.186 C 987.333,515.450 997.667,512.000 1008.000,512.000"
    fill="none" stroke="white" stroke-width="32" stroke-linecap="round" stroke-linejoin="round"/>
  <path d="M 16.000,512.000 C 26.333,512.000 36.667,507.856 47.000,499.765 C 57.333,491.674 67.667,479.638 78.000,464.231 C 88.333,448.824 98.667,430.050 109.000,408.811 C 119.333,387.571 129.667,363.871 140.000,338.861 C 150.333,313.850 160.667,287.535 171.000,261.213 C 181.333,234.892 191.667,208.571 202.000,183.583 C 212.333,158.595 222.667,134.947 233.000,113.889 C 243.333,92.831 253.667,74.371 264.000,59.565 C 274.333,44.759 284.667,33.613 295.000,26.901 C 305.333,20.188 315.667,17.912 326.000,20.489 C 336.333,23.067 346.667,30.500 357.000,42.811 C 367.333,55.123 377.667,72.313 388.000,94.004 C 398.333,115.696 408.667,141.887 419.000,171.831 C 429.333,201.774 439.667,235.466 450.000,271.849 C 460.333,308.232 470.667,347.300 481.000,387.774 C 491.333,428.249 501.667,470.123 512.000,512.000 C 522.333,553.877 532.667,595.751 543.000,636.226 C 553.333,676.700 563.667,715.768 574.000,752.151 C 584.333,788.534 594.667,822.226 605.000,852.169 C 615.333,882.113 625.667,908.304 636.000,929.996 C 646.333,951.687 656.667,968.877 667.000,981.189 C 677.333,993.500 687.667,1000.933 698.000,1003.511 C 708.333,1006.088 718.667,1003.812 729.000,997.099 C 739.333,990.387 749.667,979.241 760.000,964.435 C 770.333,949.629 780.667,931.169 791.000,910.111 C 801.333,889.053 811.667,865.405 822.000,840.417 C 832.333,815.429 842.667,789.108 853.000,762.787 C 863.333,736.465 873.667,710.150 884.000,685.139 C 894.333,660.129 904.667,636.429 915.000,615.189 C 925.333,593.950 935.667,575.176 946.000,559.769 C 956.333,544.362 966.667,532.326 977.000,524.235 C 987.333,516.144 997.667,512.000 1008.000,512.000"
    fill="none" stroke="white" stroke-width="32" stroke-linecap="round" stroke-linejoin="round"/>
</svg>